<svg width="23" height="22" viewBox="0 0 23 22" fill="none" xmlns="http://www.w3.org/2000/svg">
<path d="M4.6 18.9185L1.955 21.638C1.59083 22.0124 1.17377 22.0964 0.703802 21.8899C0.233835 21.6833 -0.000764794 21.3136 1.87296e-06 20.7808V2.36481C1.87296e-06 1.71449 0.225402 1.15797 0.676202 0.695254C1.127 0.23254 1.66827 0.00078827 2.3 0H20.7C21.3325 0 21.8741 0.231752 22.3249 0.695254C22.7757 1.15876 23.0008 1.71528 23 2.36481V16.5537C23 17.204 22.775 17.7609 22.3249 18.2244C21.8749 18.6879 21.3333 18.9193 20.7 18.9185H4.6ZM3.6225 16.5537H20.7V2.36481H2.3V17.8839L3.6225 16.5537ZM5.75 14.1889H12.65C12.9758 14.1889 13.2491 14.0754 13.4699 13.8483C13.6907 13.6213 13.8008 13.3407 13.8 13.0065C13.7992 12.6722 13.6888 12.3916 13.4688 12.1646C13.2488 11.9376 12.9758 11.8241 12.65 11.8241H5.75C5.42417 11.8241 5.15123 11.9376 4.9312 12.1646C4.71117 12.3916 4.60077 12.6722 4.6 13.0065C4.59923 13.3407 4.70963 13.6217 4.9312 13.8495C5.15277 14.0773 5.4257 14.1904 5.75 14.1889ZM5.75 10.6416H17.25C17.5758 10.6416 17.8491 10.5281 18.0699 10.3011C18.2907 10.0741 18.4008 9.79347 18.4 9.45924C18.3992 9.12502 18.2888 8.84439 18.0688 8.61737C17.8488 8.39035 17.5758 8.27684 17.25 8.27684H5.75C5.42417 8.27684 5.15123 8.39035 4.9312 8.61737C4.71117 8.84439 4.60077 9.12502 4.6 9.45924C4.59923 9.79347 4.70963 10.0745 4.9312 10.3023C5.15277 10.5301 5.4257 10.6432 5.75 10.6416ZM5.75 7.09443H17.25C17.5758 7.09443 17.8491 6.98092 18.0699 6.7539C18.2907 6.52688 18.4008 6.24625 18.4 5.91203C18.3992 5.5778 18.2888 5.29718 18.0688 5.07015C17.8488 4.84313 17.5758 4.72962 17.25 4.72962H5.75C5.42417 4.72962 5.15123 4.84313 4.9312 5.07015C4.71117 5.29718 4.60077 5.5778 4.6 5.91203C4.59923 6.24625 4.70963 6.52727 4.9312 6.75508C5.15277 6.98289 5.4257 7.09601 5.75 7.09443Z" fill="white"/>
</svg>
