<svg width="22" height="23" viewBox="0 0 22 23" fill="none" xmlns="http://www.w3.org/2000/svg">
<path d="M9.64233 23C9.12237 23 8.67482 22.8275 8.29968 22.4825C7.92454 22.1375 7.69807 21.7158 7.62027 21.2175L7.36029 19.32C7.10994 19.2242 6.87423 19.1092 6.65315 18.975C6.43207 18.8408 6.21523 18.6971 6.00263 18.5437L4.21166 19.2912C3.73022 19.5021 3.24877 19.5212 2.76733 19.3488C2.28589 19.1763 1.91036 18.8696 1.64076 18.4287L0.283088 16.0713C0.0134802 15.6304 -0.0635504 15.1608 0.0519958 14.6625C0.167542 14.1642 0.427521 13.7521 0.831933 13.4262L2.36292 12.2762C2.34366 12.1421 2.33403 12.0125 2.33403 11.8875V11.1113C2.33403 10.9871 2.34366 10.8579 2.36292 10.7237L0.831933 9.57375C0.427521 9.24792 0.167542 8.83583 0.0519958 8.3375C-0.0635504 7.83917 0.0134802 7.36958 0.283088 6.92875L1.64076 4.57125C1.91036 4.13042 2.28589 3.82375 2.76733 3.65125C3.24877 3.47875 3.73022 3.49792 4.21166 3.70875L6.00263 4.45625C6.21446 4.30292 6.43592 4.15917 6.66702 4.025C6.89811 3.89083 7.1292 3.77583 7.36029 3.68L7.62027 1.7825C7.6973 1.28417 7.92377 0.8625 8.29968 0.5175C8.6756 0.1725 9.12314 0 9.64233 0H12.3577C12.8776 0 13.3256 0.1725 13.7015 0.5175C14.0774 0.8625 14.3035 1.28417 14.3797 1.7825L14.6397 3.68C14.8901 3.77583 15.1262 3.89083 15.348 4.025C15.5699 4.15917 15.7863 4.30292 15.9974 4.45625L17.7883 3.70875C18.2698 3.49792 18.7512 3.47875 19.2327 3.65125C19.7141 3.82375 20.0896 4.13042 20.3592 4.57125L21.7169 6.92875C21.9865 7.36958 22.0636 7.83917 21.948 8.3375C21.8325 8.83583 21.5725 9.24792 21.1681 9.57375L19.6371 10.7237C19.6563 10.8579 19.666 10.9875 19.666 11.1124V11.8875C19.666 12.0125 19.6467 12.1421 19.6082 12.2762L21.1392 13.4262C21.5436 13.7521 21.8036 14.1642 21.9191 14.6625C22.0347 15.1608 21.9576 15.6304 21.688 16.0713L20.3015 18.4287C20.0319 18.8696 19.6563 19.1763 19.1749 19.3488C18.6935 19.5212 18.212 19.5021 17.7306 19.2912L15.9974 18.5437C15.7855 18.6971 15.5641 18.8408 15.333 18.975C15.1019 19.1092 14.8708 19.2242 14.6397 19.32L14.3797 21.2175C14.3027 21.7158 14.0766 22.1375 13.7015 22.4825C13.3263 22.8275 12.8784 23 12.3577 23H9.64233ZM9.84454 20.7H12.1266L12.531 17.6525C13.128 17.4992 13.6818 17.2742 14.1925 16.9774C14.7033 16.6807 15.1701 16.3212 15.593 15.8987L18.4527 17.0775L19.5793 15.1225L17.0951 13.2537C17.1913 12.9854 17.2588 12.7029 17.2973 12.4062C17.3358 12.1095 17.355 11.8074 17.355 11.5C17.355 11.1926 17.3358 10.8909 17.2973 10.5949C17.2588 10.299 17.1913 10.0161 17.0951 9.74625L19.5793 7.8775L18.4527 5.9225L15.593 7.13C15.1693 6.68917 14.7025 6.3204 14.1925 6.0237C13.6826 5.727 13.1287 5.5016 12.531 5.3475L12.1555 2.3H9.87342L9.46901 5.3475C8.87202 5.50083 8.31856 5.72623 7.80861 6.0237C7.29867 6.32117 6.83148 6.68035 6.40704 7.10125L3.54727 5.9225L2.42069 7.8775L4.90494 9.7175C4.80865 10.005 4.74125 10.2925 4.70273 10.58C4.66422 10.8675 4.64496 11.1742 4.64496 11.5C4.64496 11.8067 4.66422 12.1037 4.70273 12.3912C4.74125 12.6787 4.80865 12.9662 4.90494 13.2537L2.42069 15.1225L3.54727 17.0775L6.40704 15.87C6.83071 16.3108 7.2979 16.68 7.80861 16.9774C8.31933 17.2749 8.87279 17.4999 9.46901 17.6525L9.84454 20.7ZM11.0578 15.525C12.1747 15.525 13.128 15.1321 13.9175 14.3463C14.7071 13.5604 15.1019 12.6117 15.1019 11.5C15.1019 10.3883 14.7071 9.43958 13.9175 8.65375C13.128 7.86792 12.1747 7.475 11.0578 7.475C9.92157 7.475 8.96369 7.86792 8.18414 8.65375C7.40459 9.43958 7.01443 10.3883 7.01366 11.5C7.01289 12.6117 7.40305 13.5604 8.18414 14.3463C8.96523 15.1321 9.92311 15.525 11.0578 15.525Z" fill="white"/>
</svg>
