<svg width="27" height="28" viewBox="0 0 27 28" fill="none" xmlns="http://www.w3.org/2000/svg">
<path d="M9.98577 20.6036C7.19488 20.6036 4.83312 19.6171 2.90048 17.6439C0.967853 15.6708 0.00102499 13.2609 8.12843e-07 10.4141C-0.00102337 7.56725 0.965804 5.15728 2.90048 3.18416C4.83516 1.21105 7.19693 0.224487 9.98577 0.224487C12.7746 0.224487 15.1369 1.21105 17.0726 3.18416C19.0083 5.15728 19.9746 7.56725 19.9715 10.4141C19.9715 11.5636 19.7923 12.6479 19.4339 13.6669C19.0754 14.6858 18.5889 15.5872 17.9744 16.371L26.5775 25.1497C26.8592 25.4371 27 25.8029 27 26.2471C27 26.6912 26.8592 27.057 26.5775 27.3444C26.2959 27.6318 25.9374 27.7755 25.5021 27.7755C25.0669 27.7755 24.7084 27.6318 24.4267 27.3444L15.8236 18.5657C15.0555 19.1928 14.1721 19.6892 13.1735 20.0549C12.175 20.4207 11.1124 20.6036 9.98577 20.6036ZM9.98577 17.4684C11.9061 17.4684 13.5387 16.7828 14.8834 15.4116C16.2282 14.0405 16.9 12.3746 16.899 10.4141C16.898 8.45348 16.2261 6.78814 14.8834 5.41803C13.5407 4.04793 11.9082 3.36183 9.98577 3.35974C8.06339 3.35765 6.43135 4.04375 5.08967 5.41803C3.748 6.79232 3.07562 8.45766 3.07255 10.4141C3.06947 12.3705 3.74185 14.0363 5.08967 15.4116C6.4375 16.787 8.06953 17.4725 9.98577 17.4684Z" fill="white"/>
</svg>
